<svg version="1.0" xmlns="http://www.w3.org/2000/svg"
 width="32" height="32" viewBox="0 0 504.000000 504.000000"
 preserveAspectRatio="xMidYMid meet">
<path d="M26 3604 c-3 -786 -9 -1911 -12 -2500 l-6 -1072 1438 -6 c792 -3
1917 -9 2500 -12 l1062 -6 6 1318 c3 726 9 1851 12 2500 l6 1182 -1308 6
c-720 3 -1845 9 -2500 12 l-1192 6 -6 -1428z m3637 1340 l1299 -6 -6 -1122
c-3 -616 -9 -1710 -12 -2429 l-6 -1309 -1002 6 c-550 4 -1644 9 -2429 12
l-1429 6 6 1012 c4 556 9 1649 12 2429 l6 1419 1132 -6 c622 -3 1715 -9 2429
-12z"/>
<path d="M2326 3866 c-110 -46 -192 -135 -226 -245 -16 -51 -20 -92 -20 -218
0 -140 -2 -157 -20 -180 -17 -21 -20 -41 -20 -115 0 -81 2 -91 25 -113 22 -23
32 -25 113 -25 75 0 93 3 116 21 25 19 26 25 26 113 0 64 -4 98 -15 112 -10
15 -15 54 -16 136 -2 103 1 120 23 169 43 95 132 162 214 162 81 0 187 -88
218 -181 11 -30 16 -82 16 -154 0 -95 -3 -112 -21 -137 -19 -25 -21 -40 -18
-116 5 -116 15 -125 144 -125 129 0 139 9 144 124 2 71 0 91 -15 114 -16 22
-21 60 -29 217 -10 172 -13 195 -37 247 -34 73 -112 152 -186 186 -53 25 -68
27 -207 30 -140 2 -154 1 -209 -22z m356 -78 c73 -34 142 -104 176 -176 23
-51 27 -76 37 -247 8 -156 13 -195 28 -217 22 -32 15 -83 -13 -98 -76 -41
-151 33 -101 100 18 26 20 43 22 193 1 193 -9 240 -72 311 -76 86 -167 120
-281 104 -108 -15 -189 -75 -237 -177 -25 -55 -26 -60 -23 -230 2 -132 6 -179
17 -195 23 -32 19 -82 -7 -100 -51 -36 -118 -5 -118 54 0 17 9 39 20 50 18 18
20 33 20 179 0 131 3 170 20 222 35 112 106 189 217 235 82 35 212 31 295 -8z"/>
<path d="M2169 2853 c-11 -13 -15 -112 -17 -531 -2 -451 -1 -518 13 -538 l15
-24 333 0 c264 0 337 3 352 13 17 13 18 43 23 530 4 470 3 519 -12 542 l-16
25 -339 0 c-303 0 -340 -2 -352 -17z m642 -75 c18 -34 7 -927 -12 -939 -8 -5
-136 -9 -286 -9 -259 0 -273 1 -283 19 -13 26 -14 890 0 925 l10 26 279 0
c279 0 280 0 292 -22z"/>
<path d="M2278 2719 c-17 -9 -18 -40 -18 -424 0 -399 1 -415 19 -425 12 -6
109 -10 245 -10 191 0 227 2 240 16 14 13 16 66 16 424 0 394 -1 410 -19 420
-26 13 -460 13 -483 -1z m416 -65 c14 -5 16 -46 16 -353 0 -257 -3 -350 -12
-359 -13 -13 -321 -18 -352 -6 -14 5 -16 46 -16 359 0 273 3 354 13 358 18 8
332 8 351 1z"/>
<path d="M1637 1714 c-13 -13 -8 -299 5 -312 16 -16 200 -16 216 0 7 7 12 25
12 40 0 36 11 35 32 -2 9 -17 29 -35 43 -40 17 -6 293 -10 741 -10 624 0 715
2 720 15 4 8 2 81 -2 162 l-9 148 -727 2 -727 3 -35 -41 -35 -41 -3 38 -3 39
-111 3 c-60 1 -113 -1 -117 -4z m636 -84 c69 -55 26 -169 -63 -170 -46 0 -76
21 -90 66 -14 41 0 86 34 109 30 22 89 19 119 -5z m125 -21 l38 -42 33 42 c18
22 37 41 42 41 5 0 9 -43 9 -95 0 -88 -1 -95 -20 -95 -17 0 -20 7 -20 52 l0
51 -23 -21 c-24 -22 -24 -22 -42 -2 -25 27 -35 17 -35 -36 0 -32 -4 -44 -15
-44 -12 0 -15 17 -15 95 0 52 2 95 5 95 2 0 22 -19 43 -41z m291 1 c17 22 36
40 41 40 6 0 10 -41 10 -95 0 -88 -1 -95 -20 -95 -17 0 -20 7 -20 52 l0 51
-25 -23 -25 -23 -25 23 -25 23 0 -51 c0 -45 -3 -52 -20 -52 -18 0 -20 7 -20
88 0 49 3 92 7 96 4 3 25 -12 48 -34 l41 -40 33 40z m341 18 c25 -27 25 -39 1
-69 -19 -23 -19 -24 0 -61 19 -38 19 -38 -1 -38 -13 0 -26 12 -37 35 -9 19
-23 35 -30 35 -8 0 -13 -13 -13 -35 0 -24 -5 -35 -15 -35 -12 0 -15 17 -15 95
l0 95 45 0 c33 0 50 -6 65 -22z"/>
</g>
</svg>
